<?xml version="1.0" encoding="UTF-8" standalone="no"?>
<svg
   width="800"
   height="800"
   version="1.1"
   id="svg4"
   sodipodi:docname="github.svg"
   inkscape:version="1.1.1 (3bf5ae0d25, 2021-09-20)"
   xmlns:inkscape="http://www.inkscape.org/namespaces/inkscape"
   xmlns:sodipodi="http://sodipodi.sourceforge.net/DTD/sodipodi-0.dtd"
   xmlns="http://www.w3.org/2000/svg"
   xmlns:svg="http://www.w3.org/2000/svg">
  <defs
     id="defs8" />
  <sodipodi:namedview
     id="namedview6"
     pagecolor="#ffffff"
     bordercolor="#666666"
     borderopacity="1.0"
     inkscape:pageshadow="2"
     inkscape:pageopacity="0.0"
     inkscape:pagecheckerboard="0"
     showgrid="false"
     inkscape:zoom="0.93619791"
     inkscape:cx="691.09319"
     inkscape:cy="617.39082"
     inkscape:window-width="3840"
     inkscape:window-height="2066"
     inkscape:window-x="2869"
     inkscape:window-y="-11"
     inkscape:window-maximized="1"
     inkscape:current-layer="svg4" />
  <path
     fill-rule="evenodd"
     clip-rule="evenodd"
     d="M 400.33098,0 C 178.95829,0 0,183.33257 0,410.13995 c 0,181.29924 114.66474,334.76527 273.73514,389.08171 19.88789,4.08331 27.17275,-8.82497 27.17275,-19.68325 0,-9.5083 -0.65556,-42.09983 -0.65556,-76.05802 -111.36238,24.4499 -134.55264,-48.89146 -134.55264,-48.89146 -17.89665,-47.53314 -44.41384,-59.74975 -44.41384,-59.74975 -36.448853,-25.1249 2.655,-25.1249 2.655,-25.1249 40.43134,2.71666 61.64674,42.09983 61.64674,42.09983 35.7851,62.4664 93.44935,44.81648 116.6478,33.94986 3.31055,-26.48323 13.92234,-44.81648 25.18969,-54.99977 -88.81949,-9.5083 -182.26884,-44.81648 -182.26884,-202.35749 0,-44.81648 15.89721,-81.48299 41.0869,-109.99954 -3.9743,-10.18329 -17.89665,-52.29145 3.9825,-108.64955 0,0 33.80205,-10.86662 110.0185,42.09983 a 384.89266,391.41503 0 0 1 100.08684,-13.58328 c 33.80205,0 68.25965,4.75831 100.07865,13.58328 76.22464,-52.96645 110.02669,-42.09983 110.02669,-42.09983 21.87915,56.3581 7.9486,98.46626 3.9743,108.64955 25.85345,28.51655 41.0951,65.18306 41.0951,109.99954 0,157.54101 -93.44935,192.16586 -182.93259,202.35749 14.58609,12.89994 27.17275,37.34151 27.17275,76.04968 0,54.99977 -0.65556,99.14125 -0.65556,112.71619 0,10.86662 7.29305,23.7749 27.17275,19.69992 159.0704,-54.3331 273.73514,-207.7908 273.73514,-389.09004 C 800.65377,183.33257 621.03992,0 400.33098,0 Z"
     fill="#24292f"
     id="path2"
     style="fill:#111111;fill-opacity:1;stroke-width:8.26357" />
</svg>
